<svg version="1.2" xmlns="http://www.w3.org/2000/svg" viewBox="0 0 1190 1068" width="1190" height="1068">
	<title>LOGO01-ai</title>
	<style>
		.s0 { fill: #a2238e } 
		.s1 { fill: #fefefe } 
	</style>
	<g id="圖層 1">
		<g id="&lt;Group&gt;">
			<path id="&lt;Compound Path&gt;" fill-rule="evenodd" class="s0" d="m848.5 718.1c-56.2 76.6-148 126.5-251.6 126.5-103.4 0-195.1-49.8-251.3-126.2 26.9-6.4 133.1-24.8 250.9 45v0.1h0.1 0.1v-0.1c116.3-68.9 222.8-51.9 251.8-45.3zm0.6-0.7l-0.4 0.5zm-504 0.4z"/>
			<path id="&lt;Compound Path&gt;" class="s1" d="m668.2 821.7v-7.4q4.5 0 5.7-0.3 2-0.3 3.3-1.7 1.2-1.4 1.2-3.7 0-2-1-3.4-0.9-1.4-2.7-2-1.6-0.5-6.5-0.6v-7.3q2.8-0.1 3.7-0.2 2.3-0.2 3.6-1.5 1.3-1.3 1.3-3.5 0-2-1.1-3.3-1.2-1.3-3.4-1.5-0.9-0.1-4.1-0.2v-7.3h0.1q5.3 0 7.8 0.5 2.6 0.4 4.6 1.8 2 1.3 3.4 3.6 1.3 2.3 1.3 5.2 0 3.1-1.7 5.6-1.6 2.6-4.5 3.9 4.1 1.2 6.2 4 2.2 2.8 2.2 6.6 0 3-1.4 5.8-1.4 2.8-3.8 4.5-2.4 1.7-6 2.1-1.8 0.2-8.2 0.3zm-153.6 0v-43.9h8.7l17.9 29.3v-29.3h8.3v43.9h-8.9l-17.7-28.6v28.6zm153.6-43.9v7.3q-1.5 0-3.5 0h-5.1v10.2h5.8q1.6 0 2.8 0v7.3q-0.7 0-1.4 0h-7.2v11.7h8.2 0.4v7.4q-1.2 0-2.5 0h-15v-43.9zm-96.1 43.9v-36.4h-13v-7.5h34.9v7.5h-13v36.4zm30.9-43.9h8.9v23.8q0 5.7 0.3 7.3 0.6 2.7 2.7 4.3 2.2 1.7 5.9 1.7 3.7 0 5.7-1.6 1.9-1.5 2.3-3.7 0.3-2.3 0.3-7.5v-24.3h8.9v23.1q0 7.9-0.7 11.1-0.7 3.3-2.7 5.6-1.9 2.2-5.1 3.5-3.3 1.4-8.5 1.4-6.3 0-9.5-1.5-3.3-1.5-5.1-3.8-1.9-2.3-2.5-4.8-0.9-3.8-0.9-11.2z"/>
			<path id="&lt;Compound Path&gt;" fill-rule="evenodd" class="s0" d="m906.4 541.1c0 29.6-4.3 58.1-12.4 85.1q-13.9-0.1-27.2 0.3c-182.4 6.2-268 96.7-270.8 99.1l-0.1-0.1c-3.8-3.5-96.6-101.9-296.8-99.3-8.1-27-12.4-55.5-12.4-85.1 0-167.5 138.4-303.4 309.2-303.7q0.3 0 0.6 0c116.1 0 217.2 62.6 270.3 155.1 25.2 44 39.6 94.6 39.6 148.6zm-286.6 42.9c8 33.2 16 31.8 16 31.8h126.5c-60.8-140.1-43.8-243.9-43.8-243.9h-51.4c1.2-15 2.7-22.5 3.6-32.9h51.3l5.6-32.9h-91.4l3.5-14.1h-87.1l4.1 14.1h-92.7l7.3 32.9h49.8c1.4 8.1 2.7 17.4 4 32.9h-51.6c0 0 19 99.1-43.9 243.9h126.5c0 0 8 1.4 15.9-31.8zm247 105.7zm-236.1-350.7c-2.2 13.8-3.7 31.9-3.7 31.9h-31v-31.9zm-69.2 0c1.1 6.7 2.5 15.2 3.8 31.9h30.6v-31.9zm305.3 350.7z"/>
			<path id="&lt;Path&gt;" class="s0" d="m607.5 384.8c47 5.5 83.4 44.7 83.4 92.3 0 47.5-36.4 86.8-83.4 92.3v-15.9c37.6-5.6 66.4-37.4 66.4-75.8 0-38.4-28.8-70.2-66.4-75.8z"/>
			<path id="&lt;Path&gt;" class="s0" d="m607.5 414.2c30.9 5.4 54.5 31.9 54.5 63.7 0 31.8-23.6 58.3-54.5 63.7v-16.7c21.7-5.1 37.9-24.2 37.9-47 0-22.7-16.2-41.8-37.9-46.9z"/>
			<path id="&lt;Path&gt;" class="s0" d="m584.8 384.8c-47 5.5-83.5 44.7-83.5 92.3 0 47.5 36.5 86.8 83.5 92.3v-15.9c-37.6-5.6-66.4-37.4-66.4-75.8 0-38.4 28.8-70.2 66.4-75.8z"/>
			<path id="&lt;Path&gt;" class="s0" d="m584.8 414.2c-31 5.4-54.5 31.9-54.5 63.7 0 31.8 23.5 58.3 54.5 63.7v-16.7c-21.7-5.1-37.9-24.2-37.9-47 0-22.7 16.2-41.8 37.9-46.9z"/>
			<path id="&lt;Compound Path&gt;" fill-rule="evenodd" class="s0" d="m984.6 705l-2.4 5.7-5.4-2.3-24.1-10.2-4.2-1.8 2.2-5.1 2 0.8 2.7 1.2q-3.9-6.1-1-13.1 1.3-3 3.5-5.1 2.2-2.1 4.5-2.6 2.3-0.5 5 0 1.7 0.3 5.7 2l3.7 1.6 17 7.2-2.4 5.7-14.6-6.2-5.9-2.5q-3.5-1.4-5.5-1.5-2-0.1-3.8 1.2-1.8 1.2-2.7 3.5-1.6 3.7-0.4 7.3 1.2 3.6 7.7 6.4l10.6 4.5zm-6.6-45l5.3-19.7q-4-0.7-6.6 0.2-0.3 0.1-0.7 0.3-4.2 1.9-5.4 6.5-1.1 4.1 0.9 7.6 1.7 3.1 5.2 4.6 0.7 0.3 1.3 0.5zm10.3-25.2q0.6 0.2 1.6 0.5l-7 26.4q5.9 1.2 9.8-0.9 3.9-2.1 5.1-6.6 0.8-3.3-0.3-6.1-1.1-2.8-4.5-5.1l2.4-6q5.1 2.9 7 7.6 1.9 4.8 0.3 11-2.1 7.7-8.1 11-6 3.3-14.6 1-1.7-0.5-3.3-1.1-6.4-2.5-9.3-7.2-3.7-6-1.8-13.3 1.9-7.1 7.9-10.3 1.6-0.8 3.2-1.3 5.1-1.3 11.6 0.4zm-7.5-36.1q2.4-1.2 6-1.1l-0.3 6.1q-2.8-0.1-4.7 1.6-1.9 1.7-2.6 5.2-0.7 4.3 0.4 6.3 1 2 2.9 2.4 1.2 0.2 2.3-0.4 1.1-0.6 2-2.1 0.5-0.8 2.5-5.1 2.9-6.2 4.5-8.5 1.5-2.4 3.9-3.5 2.4-1.1 5.5-0.5 3 0.5 5.4 2.8 2.4 2.2 3.3 5.9 0.9 3.6 0.1 7.8-1.2 7.1-4.8 10.2-3.6 3.2-9.5 3.2l0.1-6.2q3.8 0.1 6.1-1.9 2.4-1.9 3.1-6.1 0.7-4.2-0.6-6.6-1.4-2.3-3.7-2.7-2-0.4-3.6 1.2-1 1.1-3.1 5.9-2.9 6.4-4.6 8.8-1.7 2.4-4.1 3.3-2.5 1-5.1 0.5-2.4-0.4-4.3-1.9-0.6-0.5-1.2-1.1-1-1.1-1.7-2.5-0.8-1.6-1.1-4.2-0.3-2.6 0.2-5.4 0.8-4.2 2.6-7.2v-0.2q1.8-2.9 4.1-4zm23.3-7.4l-0.5-6.2q3.7-0.3 5.8-2.5 2.2-2.2 2.5-6.5 0.2-4.2-1.3-6.4-1.6-2.2-4-2.4-2.1-0.1-3.4 1.6-0.9 1.2-2.5 6.2-2.2 6.7-3.7 9.3-1.4 2.5-3.7 3.7-2.4 1.2-5 1-2.5-0.2-4.5-1.4-2-1.3-3.2-3.3-1-1.5-1.6-4.1-0.5-2.5-0.3-5.4 0.3-4.3 1.7-7.4 1.5-3.2 3.7-4.6 2.3-1.4 5.8-1.7l0.4 6.1q-2.8 0.2-4.5 2.1-1.8 1.8-2 5.4-0.3 4.3 1 6.2 1.3 1.9 3.2 2.1 1.2 0.1 2.2-0.6 1-0.7 1.8-2.3 0.4-0.9 2-5.4 2.2-6.4 3.5-8.9 1.3-2.5 3.5-3.9 2.2-1.3 5.4-1.1 3.1 0.2 5.7 2.2 2.6 2 3.9 5.5 1.2 3.6 0.9 7.9-0.5 7.1-3.7 10.6-3.2 3.5-9.1 4.2zm-46.8 157.8q2.2-3.7 1.8-6.3-0.4-2.7-2.4-3.9-1.8-1.1-3.8-0.2-0.1 0.1-0.2 0.2-1.4 0.8-4.9 4.2-5 5-7.4 6.6-2.1 1.3-4.2 1.6-0.5 0-0.9 0-2.6 0-4.9-1.4-2.1-1.2-3.3-3.3-1.2-2-1.4-4.4-0.1-1.7 0.5-4.3 0.7-2.5 2.1-5 2.3-3.6 5-5.8 1.4-1.1 2.9-1.7 1.2-0.6 2.5-0.7 2.6-0.2 5.9 1.1l-2.4 5.6q-2.6-1.1-5-0.2-0.5 0.2-1 0.5-1.8 1.1-3.3 3.5-2.2 3.7-1.9 5.9 0.3 2.4 1.9 3.3 1 0.6 2.3 0.5 0.4-0.1 1-0.3 0.7-0.3 1.6-0.9 0.8-0.6 4.2-3.9 4.9-4.7 7.2-6.4 1.7-1.2 3.5-1.6 0.7-0.2 1.4-0.2 2.6-0.2 5.3 1.5 2.7 1.6 4.1 4.5 1.4 3 0.9 6.7-0.4 3.7-2.7 7.4-3.6 6.1-8.1 7.8-0.5 0.2-0.9 0.3-4.1 1.2-9.1-0.8l2.3-5.7q3.4 1.5 6.4 0.4 0.2 0 0.4-0.1 2.6-1.1 4.6-4.5zm19-26.9l-2.9 5.6-20.7-10.6-11.9-6.1 2.8-5.5 9.1 4.6zm-29.7 51.6l-3.1 4.6-4.4-3.1q2.6 7.1-1.6 13.1-0.6 0.8-1.3 1.6-1.5 1.5-3.2 2.6-2.7 1.6-5 1.6-2.3 0.1-4.8-1-1.8-0.8-5-3l-10.4-7.3-8.2-5.8 3.6-5 4.6 3.2 12 8.4q4 2.8 5.6 3.5 2.3 0.9 4.6 0.1 2.2-0.7 3.8-3 1.6-2.3 1.8-5.1 0.3-2.9-1.2-5.1-1.4-2.3-5.2-4.9l-16.1-11.3 3.5-5.1 19.6 13.7zm-9.1-71.3l-1.4 2.7-1.4 2.8-6.4-3.2 2.9-5.6 4.9 2.5zm-28.3 107.3q0.3-1.8-0.4-3.7-0.4-1.1-1.1-2.1-0.6-0.8-1.4-1.5-2.1-1.9-4.6-2.3-2.5-0.3-4.9 1.1-0.2 0.1-0.4 0.3-2.2 1.4-5.1 4.6l-4.1 4.5-3.8 4.2 3.8 3.4 9.1 8.2h0.1l8.4-9.3q2.1-2.4 2.8-3.6l0.1-0.1q1.2-1.9 1.5-3.7zm-19.1-12.2q1.2-2.4 0.7-4.5-0.4-2.1-2.4-3.9-0.6-0.5-1.2-1-1.3-0.8-2.9-1.1-2.2-0.4-4.2 0.8-0.4 0.2-0.8 0.5-1.9 1.4-4.9 4.8l-6.8 7.5 11.4 10.2 0.3-0.3 7-7.8q0.5-0.5 0.9-1 2.2-2.6 2.9-4.2zm-4.1-16.8q0.6 0.1 1.2 0.2 2.9 0.8 5.1 2.8 2.4 2.1 3.3 5.4 1 3.2-0.1 7 0.4-0.3 0.9-0.5 3.6-2 7.2-1.7 2.2 0.2 4.1 1.1 1.7 0.8 3.3 2.2 2.6 2.4 3.9 5.5 1.2 3.2 1 6-0.3 2.7-1.9 5.7-1.6 3.1-4.8 6.7l-1.5 1.6-11.3 12.6-0.1 0.1-9.1-8.2-7.9-7.1-13.9-12.5-6.7-6 6.7-7.4 6-6.7q3.9-4.3 7.4-5.9 0.2-0.1 0.5-0.2 3.2-1.3 6.7-0.7zm-13.9 76.6l-4.7 4.1-2-2.4-18.9-21.6-2.1 1.8-2 1.7-3.2-3.6 4.2-3.6-2.6-2.9q-2.4-2.8-3.1-4.6-0.9-2.4-0.2-5 0.7-2.6 3.8-5.3 1.4-1.2 3.1-2.3 0.8-0.5 1.7-1l2.9 4.7q-1.7 1-3 2.1-1 0.9-1.6 1.7-0.6 0.9-0.7 1.8 0 1 0.7 2.3 0.5 0.9 1.4 1.9l2.2 2.6 5.4-4.7 3.2 3.6-5.4 4.7 14.2 16.3zm-26.6 11.2q0.2-2.6-1.1-5.7-0.9-2.3-2.7-4.7-4-5.6-8.6-6.6-4.5-1-8.2 1.7-3.8 2.7-4.2 7.4-0.5 4.6 3.7 10.3 4.1 5.7 8.6 6.7h0.1q4.5 1 8.2-1.7 2.1-1.5 3.1-3.6 0.9-1.7 1.1-3.8zm-10.8-22.7q5.4 0.9 9.7 5.6 1.2 1.2 2.3 2.6 4.1 5.8 4.8 10.3 0.6 4.5-1.3 8.7-1.9 4.2-5.8 6.9l-0.1 0.1q-5.4 4-11.2 3.6-0.9-0.1-1.7-0.3-6.7-1.1-12.2-8.7-6-8.2-4.3-15.5 1.4-6 6.9-10 5.4-3.9 11.3-3.5 0.8 0.1 1.6 0.2zm-48.1 51.5q3.3 2.8 6.5 6-1.2-4.2-2-8.5l-3.8-22.4 5.3-3.1 6.6 39.2q1.1 6.4 1.1 9 0.1 3.5-1 5.8-1.2 2.3-3.7 3.8-1.6 0.9-3.9 1.3l-3.5-4.7q2.1-0.5 3.4-1.3 1.8-1 2.5-2.2 0.7-1.3 0.8-2.7 0-1.1-0.7-5-0.1-0.5-0.3-1.6l-24-19.7-6.3-5.1 5.8-3.4 0.5 0.5zm-15.9 18.4q1-0.4 2.4-1.3l3.1 4.6q-2.2 1.6-4.1 2.4-1.2 0.6-2.2 0.8-1.7 0.5-3 0.4-2.1-0.2-3.5-1.5-1.4-1.3-3.7-6.4l-8.6-19.3-3.3 1.5-0.8 0.4-2-4.4 2.8-1.3 1.4-0.6-1.4-2.9-2.3-5.4 2.3-3.3 1.8-2.6 5.2 11.7 5.7-2.5 2 4.4-5.7 2.5 8.7 19.6q1.1 2.4 1.7 3 0.6 0.5 1.4 0.7 0.6 0 1.3-0.2 0.4-0.1 0.8-0.3zm-20 14.8l-2.9 1.2-2.9 1.2-13.7-33.8v-0.2l5.7-2.3 10.9 26.9zm-18.9-46.9l2.7 6.7-3.2 1.2-2.6 1.1-2.7-6.6 5.3-2.2zm-0.8 49q-0.8 3.2-3.5 5.8-2.8 2.5-6.9 3.9-6.7 2.3-11.2 0.7-4.5-1.6-7.4-6.7l5.5-2.9q1.7 3.3 4.6 4.4 2.8 1.1 6.9-0.3 4-1.4 5.4-3.7 1.4-2.4 0.6-4.6-0.7-2-2.8-2.5-1.5-0.4-6.7 0.1-7 0.6-9.9 0.2-2.9-0.3-4.9-2-2-1.6-2.9-4.2-0.8-2.3-0.4-4.6 0.4-2.4 1.7-4.3 1.1-1.5 3.2-3 2.1-1.5 4.8-2.4 4.1-1.4 7.6-1.3 3.5 0.1 5.6 1.6 2.2 1.5 3.9 4.6l-5.5 2.8q-1.3-2.5-3.7-3.4-2.4-0.8-5.8 0.3-4.1 1.4-5.3 3.4-1.3 1.9-0.7 3.7 0.4 1.1 1.5 1.8 1 0.7 2.7 0.8 1 0 5.7-0.3 6.8-0.5 9.7-0.3 2.8 0.2 4.9 1.8 2.1 1.5 3.1 4.5 0.4 1.1 0.5 2.2 0.2 1.1 0 2.3-0.1 0.8-0.3 1.6zm-78 18.6q3.3-0.4 5.5-2.5 2.2-2 3.1-6.1h6.5q-0.8 5.8-4.5 9.3-3.7 3.6-10.1 4.4-1.6 0.2-3.2 0.2-5.8-0.1-10-3.6-5.3-4.3-6.4-13.2-1.1-9.2 3-14.8 4.1-5.6 11.6-6.6 0.9-0.1 1.8-0.1 6.2-0.2 10.8 3.6 5.2 4.4 6.3 13.4 0.1 0.6 0.2 1.7l-17.3 2.1-9.8 1.2q1 6 4.5 8.8 2.4 1.9 5.3 2.2 1.3 0.2 2.7 0zm7.5-18.6q-1-4.5-3.2-6.6-3-2.8-7-2.7-0.5 0-1.1 0.1-4.2 0.5-6.8 3.7-2.5 3.2-2.2 8l10.1-1.3zm20.1 18l-7.6-35.8 5.4-1.1 1.2 5.4q1.3-4.3 2.8-5.9 1.5-1.6 3.6-2 3.1-0.7 6.7 0.6l-0.9 6.1q-2.5-0.8-4.7-0.4-2 0.5-3.4 2-1.3 1.5-1.5 3.8-0.3 3.4 0.5 7.3l4 18.8zm-243.6-32.5l5.5 3.4q-3.8 4.4-8.8 5.5-0.5 0.1-1.1 0.2-4.6 0.6-9.7-1.8-7.3-3.4-9.5-9.9-2.1-6.4 1.6-14.5 4-8.4 10.4-11 3.5-1.4 7.2-1.2 3 0.3 6.2 1.8 6.6 3.1 8.7 9.6 2.1 6.5-1.7 14.7-0.2 0.5-0.7 1.5l-12.5-5.8-12.3-5.8q-2.2 5.7-0.8 9.9 1.4 4.2 5.6 6.1 3.1 1.4 6 0.8 0.8-0.1 1.5-0.4 2.2-0.9 4.4-3.1zm4.3-9.1q1.6-4.4 0.8-7.3-1.1-4.5-5.4-6.5-2.1-0.9-4.1-1-1.8-0.1-3.7 0.6-3.8 1.3-6.1 5.5l9.8 4.6zm20.6-15l2.2-6.8 5.9 2-2.2 6.7zm-2.1 6.5l5.9 1.9-11.3 34.9-5.9-2zm67.1 3.4l6.6 1.5-6.6 28.5q-1.7 7.4-4.4 11.4-2.7 4-7.7 5.7-5 1.8-12.2 0.1-6.9-1.6-10.7-5-3.9-3.4-4.7-8.4-0.9-4.9 0.9-12.7l6.6-28.5 6.5 1.5-6.5 28.4q-1.5 6.5-1 9.8 0.5 3.3 3 5.6 2.5 2.3 6.7 3.3 7.2 1.7 11-0.9 3.8-2.6 6-11.8zm9.1 52.3l3.2-36.5 5.6 0.5-0.5 5.1q4.6-5.6 12.2-5 3.3 0.3 5.9 1.8 2.7 1.4 3.9 3.4 1.2 2.1 1.5 4.8 0.2 1.7-0.2 6l-1.9 22.5-6.2-0.6 1.9-22.2q0.4-3.8-0.2-5.7-0.6-1.9-2.3-3.2-1.7-1.3-4.2-1.5-4-0.3-7.1 1.9-3 2.3-3.6 9.3l-1.8 19.9zm44.8-40.1l0.2-7.1 6.2 0.2-0.2 7.1zm-1.5 43.4l1.2-36.6 6.3 0.2-1.3 36.6zm29.7 0.1l-15.2-36.2 6.6-0.2 8.6 21.7q1.4 3.5 2.6 7.2 0.7-2.9 2.1-7l7.3-22.6 6.4-0.2-12.6 37.1zm-214.9-57q4.3-1.5 8-7.9 3.5-6 2.7-10.5-0.7-4.5-4.2-6.5-3.1-1.8-7.2-0.5-0.4 0.1-0.7 0.2-4.5 1.7-8 7.8-3.6 6.2-2.8 10.5 0.8 4.4 4.3 6.4 3.3 1.9 7.2 0.8 0.3-0.1 0.7-0.3zm3.5-30.6q2.9 0 6 1.8 4 2.4 5.9 6.2 1.9 3.9 1.3 8.7-0.6 4.7-3.2 9.2-2.8 4.9-6.8 7.8-3.5 2.5-7.4 2.9-0.6 0.1-1.2 0.1-4.5 0.2-8.2-2-2.7-1.5-4.1-3.9-1.5-2.3-1.9-4.9l-6.3 10.9-2.6 4.6-5.4-3.1 8-13.9 17.4-30 4.3 2.5 0.5 0.3-0.5 1-1.8 3.1q0.9-0.4 1.8-0.7 2.1-0.7 4.2-0.6zm-23.1-15l5.2 3.4-8 12.3-11.9 18.4-1.6-1-3.7-2.4 3.7-5.6 13.5-20.8zm3.7-5.7l3.9-6 5.2 3.4-3.9 6zm-18-3.8q1.6 2.6 1.7 4.8 0 2.2-1.1 4.5-0.6 1.3-2.6 3.8-0.3 0.4-0.7 0.9l-5.1 6.6q-5.3 6.8-6.4 8.8-1.1 2.1-1.5 4.5l-5.1-4q0.4-2.1 1.8-4.4-2.2 0.1-4.2-0.1-1.9-0.2-3.6-0.7-3.2-1-6.1-3.3-4.8-3.7-5.5-8-0.7-4.3 2.1-7.9 1.6-2.1 4-3.1 2.3-1 4.7-0.9 2.2 0.2 4.4 1 0.2 0.1 0.4 0.2 1.7 0.7 4.9 2.6 6.5 4 10 5.2 0.8-1 1.1-1.3 2.3-3 1.9-5.3-0.6-3.1-4.3-6-3.5-2.7-6.1-2.8-2.5 0-5.7 2.4l-2.2-2.2-2.1-2.2q1.1-0.9 2.1-1.6 2-1.2 3.9-1.7 3-0.7 6.6 0.5 3.6 1.2 7.4 4.1 1.9 1.6 3.3 3 1.2 1.3 2 2.6zm-22.8 21.2q3.2 0.5 5.9-0.8 2.1-1.1 4.6-4.3l1.4-1.8q-3.5-1-9.4-4.4-1.6-0.9-2.9-1.5-1.3-0.6-2.1-0.9-1.7-0.4-3.2 0.1-1.5 0.5-2.5 1.8-1.5 2-1.1 4.4 0.5 2.5 3.3 4.7 2.7 2.1 5.6 2.7 0.2 0 0.4 0zm15-43.9l-4.1 4.3-11.3-10.9-0.8-0.7-30.9 32-0.2-0.1-4.7-4.5 4.7-4.8 26.3-27.3-12-11.5 4.2-4.3 13.4 12.9zm-46.7-47.8l4 4.7-4.6 4-28.7 25-4.8 4.2-2.7-3.1-1.4-1.6 1.4-1.2 7.5-6.5 28.7-25zm-26.8-1.3q0.3-3.2-2.4-7l-0.1-0.1q-2.5-3.4-5-4.2-1.1-0.3-2.4-0.2-1.7 0.1-3.8 0.9l-2.9-5.4q3.6-1.6 6.7-1.5 3.1 0.1 6.2 2.3 0.6 0.4 1.2 0.8 2.5 2 4.8 5.1 2.7 3.8 3.6 6.9 0.8 3 0.2 5.1-0.5 2.1-2.2 4-1.2 1.2-4.5 3.6l-1.9 1.4-4.8 3.5q-1.4 1.1-2.6 2-4.7 3.4-6 4.8-1.6 1.6-2.7 3.8l-3.8-5.2q1-1.9 3-3.7-3.9-0.9-6.6-2.5-0.3-0.2-0.7-0.4-2.8-1.9-5-4.9-3.5-4.8-3.1-9.2 0.5-4.3 4.2-7 2.2-1.6 4.6-1.9h0.1q2.6-0.4 4.8 0.5 2.3 0.8 4.3 2.4 1.4 1.2 4 3.9 1.5 1.6 2.9 3 3.1 3.2 5.3 4.7 1.1-0.7 1.3-0.9 0.4-0.3 0.8-0.6 2.3-2 2.5-4zm-21.9 11.7q3 1.4 5.9 0.8 2.3-0.4 5.6-2.8l0.5-0.3 1.4-1.1q-0.7-0.4-1.4-0.9-2.8-2-6.5-5.9-2.7-2.8-4.2-3.6-1.5-0.9-3-0.8-1.3 0-2.4 0.6-0.3 0.2-0.5 0.4-2 1.5-2.3 4-0.2 2.5 1.9 5.4 0.5 0.6 0.9 1.1 1.8 2.1 4.1 3.1zm-2.7-42.8q1.2-1.6 1.3-3.8 0-2.1-1.2-4.3-0.7-1.1-1.5-1.9-1.7-1.9-4.1-2.8-3.7-1.2-9.8 2.3l-4 2.4-13.3 7.6-3.1-5.3 16.4-9.5 15.3-8.8 2.6 4.5 0.2 0.3-0.2 0.1-4.3 2.5q2.4 0.1 4.3 0.9 4.2 1.7 6.8 6.2 1.6 2.8 2 5.8 0.4 3-0.6 5.2-1 2.2-3 4-1.4 1.1-5.1 3.3h-0.1l-17.9 10.4-1.5 0.8-3.1-5.3 4.6-2.7 14.7-8.5q2-1.1 3.2-2.2 0.9-0.6 1.4-1.2zm-18.9-36.3q1.9-4.2-0.1-8.4-0.1-0.3-0.3-0.6-2-3.7-6.1-4.9-4.4-1.3-10.8 1.6-4.4 2.1-6.6 4.7-1.1 1.2-1.7 2.6-1.8 4.3 0.1 8.5 0.7 1.3 1.6 2.4 1.8 2.2 4.9 3.1 4.5 1.2 11-1.8 5.6-2.6 7.6-6.3 0.2-0.4 0.4-0.9zm-20-18q9.2-4.3 16-1.3 2 0.9 3.6 2.2 3.1 2.5 5 6.5 3.2 6.9 0.7 13.3-1.6 4.3-5.7 7.4-2 1.5-4.6 2.7-6.4 3-11 2.8-4.3-0.2-7.9-2.6-0.2-0.2-0.4-0.3-3.8-2.7-5.8-7.1-3.2-6.9-0.8-13.3 1.8-4.8 7-8.2 1.7-1.1 3.9-2.1zm25.5-24.8l2.1 5.9-6.8 2.3-1.2-3.5-0.8-2.4 0.8-0.3zm-5.1-11.8l-0.8 0.2-11.5 3.1 1.6 6.1-4.7 1.2-1.6-6-7.4 2-13.3 3.5q-2.6 0.7-3.2 1.2-0.6 0.5-0.9 1.4-0.2 0.8 0.1 2.1 0.3 1 1 2.6l-5.1 2.3q-1.2-2.4-1.7-4.4-0.9-3.3-0.4-5.3 0.6-2.1 2.1-3.3v-0.1q1.6-1.1 6.8-2.5l14.6-3.9 5.8-1.6-1.2-4.4 4.7-1.2 1.2 4.4 8.7-2.4 4.4 4.2zm-15.5-93.7l0.5 6.9-9.4 7.2-21.4 16.6-7 5.4 7-0.5 21.4-1.5 11.2-0.7 0.5 6.4-11.7 0.8-21.4 1.5-17.4 1.2-0.5-6.9 17.9-13.8 19.9-15.4-19.9 1.4-19.7 1.3-0.5-6.4 20.2-1.4 21.4-1.5zm7.4 110.1l2.1 5.9-18.4 6.3-16.3 5.6-2-5.9 18.3-6.3zm-15.5-54.1q2 3.2 3.1 7.8 1.1 4.6 0.6 7.7-0.4 3.1-1.7 4.8-1 1.4-2.8 2.4-0.4 0.2-0.9 0.4-1.5 0.7-5.5 1.6l-8 1.9q-4.3 1-6.9 1.7-2.7 0.7-3.7 1.1-2.2 0.9-4 2.6l-1.4-6.4q1.6-1.3 4.1-2.2-3.6-2.7-5.5-5.5-1.9-2.9-2.7-6.4-1.4-5.9 0.7-9.7 2.2-3.8 6.7-4.9 2.6-0.6 5 0.1 0.4 0.1 0.8 0.2 1.9 0.7 3.4 2.1 1.8 1.7 3 3.9 0.9 1.7 2.2 5.2 2.5 7.1 4.5 10.3 1.3-0.3 1.6-0.3 3.7-0.9 4.8-3 1.6-2.7 0.5-7.3-1-4.3-3-6-1.9-1.7-6-1.8l-0.5-6.1q4 0 6.7 1.3 2.3 1.1 4.1 3.4 0.4 0.5 0.8 1.1zm-15.9 20.3l2.2-0.5q-2.1-3-4.6-9.4-1.4-3.6-2.4-5-0.6-0.8-1.4-1.4-0.6-0.3-1.1-0.5-1.5-0.5-3.1-0.2-2.4 0.6-3.6 2.8-1.2 2.2-0.4 5.7 0.8 3.5 3 5.9 2.2 2.4 5.1 3h0.1q2.2 0.5 6.2-0.4z"/>
			<path id="&lt;Compound Path&gt;" fill-rule="evenodd" class="s0" d="m966.1 352.3l2.9-1.8-3.7-6-2.7-4.5 2.7-1.6 2.3-1.4 6.3 10.5 2.4-1.4-6.4-10.5 5-3 6.3 10.5 2.3-1.3q0.6-0.4 0.2-1.1l-5.7-9.5 5-3 8.7 14.4q0.7 1.4-0.5 2.1l-21.8 13.1 0.3 0.5 0.5 6.6q-2.2 1.2-4.9 2.2-4.6 1.8-10.6 3.3l-1.7-6.6q7.6-2.2 9.4-3.2 0.8-0.5 0.4-1.2l-27.4-45.6-4.2-7q-0.4-0.6-0.9-0.3l-9.2 5.5-3.5-5.8 14.2-8.5q1.1-0.7 1.7 0.4l1.9 3.1 0.1 0.2 21.7-13.1q1.4-0.8 2.3 0.8 2.7 4.8 5.8 8.7 2.1 2.8 4.4 5.1l-3.9 5.3q-0.2-0.2-0.5-0.5-4.4-4.7-8.4-11.3-0.2-0.3-0.7 0.1l-2.2 1.3 6.1 10.1-5 3-6.1-10.1-2.6 1.6 6.3 10.4-5 3-6.3-10.4-2.6 1.5 17.3 28.8q0.5-3.3 0.7-6.9-7.4-5.4-8.8-6.9l3.2-5q2.8 2.9 5.7 5 0-2.9 0-4l5.5 0.3q-2-1.5-3.4-2.7l3-5.2q1.7 1.5 3.3 2.7 1.3 1 2.6 1.8-0.1-3.4-0.3-4.8h5.8q0.1 2.3 0.3 8 3.1 1.1 6.4 2.1l-1.7 5.6q-2.4-0.8-4.5-1.5 0 2.5-0.1 4.8l-5.7-0.3q0 0-0.1-0.1l-1.7 4.7-1-0.4q-1.6-0.7-3.2-1.3 0 2.7-0.3 5.2l-5.5-0.8 9 15zm2.1-24.5q0.1-2.9 0-6-0.7-0.5-2.8-1.7l-2.8-1.6q0.1 1.9-0.1 6.9 1.4 0.7 2.9 1.3 1.3 0.6 2.8 1.1zm-20.6 45.5l-5.9 3.5-6.2-10.5-6.8-11.2q-0.7 0.8-1.4 1.5-6.2 5-11.9 3.1-4.7-1.7-7.4-6.5-2.8-4.9-3.7-12.8l6.6-2.5q0.2 7.7 3.2 12.3 2.6 2.7 5.1 2.4 2.6-0.4 5.6-4l-18.7-31.2 5.8-3.5 16.9 28.1q1.4-3 2.3-6.2l2 3.3h0.1l2.3 1.6 8.1 5.7-8.1-13.5-7.5-12.3 5.6-3.3 1.9 3.1 17.7 29.5-3.7 8.2-14-9.8-1.6-1.2q-0.6 0.9-1 1.8l2.6 4.2zm-155.2-152.9l-5.8 4.5q-6.6-5.3-11.9-10.8-7-7.1-11.8-14.8l-7.2 17.1-6.6-2.8 7.4-17.3q-20.7 4.3-35.4 1.1l-0.2-7.3q16.8 3.3 33 0.3l-25.7-11 2.3-5.3 30 12.7 1.9-4.6-26.1-11.1 2.3-5.3 26.1 11.1 2-4.6-28.3-12 2.3-5.4 17.3 7.4q-0.1-4.9-0.5-8.4l-16.6-7 2.4-5.7 13.6 5.8q-0.6-6.4-1.7-10l6.4-1.3q1.4 4.5 1.9 11l-5.5 0.8 10.2 4.3 5.2-12.1 1.3 0.6 4.6 2-4.6 10.9-0.5 1.1 0.5 0.2 6.5 2.8 5.1-12.1 6 2.6-5.1 12.1 7.7 3.2-1.8-3q7.1-3.9 10.9-7.1l3.8 5.4q-3.8 3-9.3 6.3l12.8 5.4-2.4 5.7-17.6-7.5q-2.3 2.7-5.5 5.8l17.8 7.5-2.3 5.4-26.6-11.3-1.5-0.7-1.9 4.6 3.4 1.5 22.5 9.6-2.2 5.3-20.3-8.6-5.7-2.4-1.9 4.6 7.6 3.2 22.2 9.5-2.2 5.3-20-8.4-6.1-2.6q2.5 4.2 6.1 8.4 6.9 7.9 17.7 15.4zm-13.1-49.1q3.2-3.2 5.6-5.7l-10.2-4.4-10.3-4.3q0.2 3.8 0.2 8.2l10.1 4.2zm84.9 73q-21.7 11.7-48.4 6.4l-0.2-8q30.9 8.3 55.9-12.6l-24.5-20.6 4.8-5.7 25 21q1.5-1.5 2.9-3l7.9-9.3 5.9 5-7.8 9.3q-1.5 1.6-2.8 3.1l24.9 21-4.7 5.7-24.3-20.4q-2.8 4-4.4 7.8-8.4 20.4 0.8 50.3h-8.4q-0.7-3.1-1.3-5.6-6-27.4 1.9-46.3-1.7 0.9-3.2 1.9zm-186.6-63.4q2-1 2.3-3l3.1-25-7.1-0.9-12.9-1.6q-3.1-0.4-2.7-3.5l1.3-11-8.8-1.1-0.8-0.1q-0.6 2.3-1.4 4-4.5 8.7-19.3 11.6l-3.1-6.7q6.4-1 9.1-2 5.3-1.9 7.7-7.8l-16.1-1.9q-0.6-0.1-0.6 0.5l-6 48.9-7.1-0.8 6.7-54.6q0.2-1.7 1.9-1.5l17.7 2.2q-2-6.5-2.5-8.3l-18.1-2.3 0.9-6.7 31 3.8 3 0.4 0.7-6.2 7.1 0.9-0.8 6.1 13.1 1.6 20.8 2.6-0.8 6.7-18.4-2.2q-0.7 1.3-1.6 3-0.2 0.6-0.5 1.2-1 1.7-1.7 3.3l2.2 0.3 14.9 1.8q1.8 0.2 1.6 1.9l-5.8 47.1q-0.6 4.3-4.1 6.2-2.4 1.2-6.6 0.6-3.1-0.5-7.3-2l0.8-7.4-16.6-2.1-20.2-2.5q-1.8-0.3-1.6-2.1l2.4-19q0.2-1.8 2-1.6l17.4 2.2 20.2 2.5q1.8 0.2 1.6 2l-2.3 19q-0.2 1.9-1.8 1.7 3.6 1.5 5.4 1.8 1.2 0.2 1.7 0zm-12.2-8.9q0.4-0.1 0.4-0.4l1.1-9.1q0.1-0.3-0.2-0.4l-13.9-1.7-12.7-1.5q-0.3-0.1-0.3 0.2l-1.1 9.2q-0.1 0.3 0.2 0.4l13.9 1.7zm0.7-42.4q3.9-6.8 4-7.5l-17.3-2.1-6.2-0.8q2 7.1 2.4 8.3l3.8 0.5zm17.6 16.9l0.8-7.2q0-0.6-0.5-0.7l-8.1-0.9-8-1-0.7 6q-0.2 1.7 1.5 1.9l7.2 0.9zm-212.4 47l2.4 5.7-26.4 11.2-7.2 3-6.2 2.7-15.7 6.6-13.1 5.6-2.4-5.7 15.5-6.6 15.7-6.6 0.3-0.2-0.3-0.7-0.9-2.2-14.8 6.2-9.5 4.1-2-4.7 11.5-5 12.8-5.4-1.1-2.4-11.7 5.5-13.7 6.5q-1.4-2.2-3.2-4.6l14.2-6.6q1.5-3.3 2.7-6.8l0.1-0.2-0.1 0.1-13.9 5.9-2-4.8 15.9-6.8 15.7-6.6 6.2-2.6 7.2-3.1 4.6-1.9 2 4.7-6.6 2.8-0.4 0.2 0.4 0.1q10.1 2.1 13.7 3.2l-1.7 5.4 1.2-0.5 2 4.8-15.2 6.4-7.2 3.1-1.2 0.5 1.2 2.7 0.1 0.2 7.1-3zm-31.2-5l4.3-2q-3-0.7-4.3-0.8l-0.2-0.1 0.2-1 0.2-1-0.2 0.1-6.2 2.6-8.5 3.6q-0.8 2.7-2.1 6.3l10.6-4.9zm18.6 1.3q-2.8-0.9-5.8-1.5l-5.7 2.7-7.1 3.4-4.3 2 1.1 2.7 3.2-1.4 7.1-3zm-4.4-27l5.9 0.3q2.5 5.9 3.6 14.8l-6.5 0.8q-1-7.2-1.8-9.1-0.3-0.8-1.1-0.5l-7.1 3-7.2 3.1-6.2 2.6-15.6 6.6-20 8.5q-0.5 0.3-0.3 0.8l3.9 9.3-5.9 2.5-6-14.1q-0.4-1.1 0.6-1.5l27.7-11.8 15.6-6.6 6.2-2.7 7.2-3zm-5.6-1.3q0.4 0.8-0.4 1.1l-1.1 0.4-7.1 3.1-6.2 2.6-15.7 6.6-21.5 9.2q-0.7 0.3-1-0.5l-4.4-10.2q-0.2-0.7 0.4-1l26.5-11.2 15.7-6.7 6.2-2.6 3.2-1.4q0.8-0.3 1.1 0.3l2.8 6.7zm-14.9 2l6.3-2.7 0.9-0.4q0.2-0.1 0.1-0.3l-1-2.3q0-0.1 0-0.1-0.1-0.1-0.3 0l-6 2.5-15.6 6.6-19.2 8.2q-0.2 0.1 0 0.3l0.9 2.2q0.1 0.3 0.3 0.2l18-7.6zm88.4-30.1l-22.9 2.4-0.7-7.4 22.8-2.4-1.7-16.3 7.4-0.8 8 76-7.4 0.8-2.2-20.5q-8.4 7.2-18.5 13.9l-4.9-5.6q12.8-8.6 22.4-17.5zm44.3-20.3l5.4 5.2q-8.8 11-23.8 23.3l3.1 29.7q0.3 2.7 0.9 3.4 1.3 1.3 4.3 1l9.1-1q3.6-0.4 4.7-2.5 1.1-3 1.1-15.4l7.5 1.1q0.6 11.3 0 15.6-0.5 2.6-1.6 4.3-1.8 2.4-3.2 3-1.7 0.7-5.4 1.1l-14.7 1.5q-3.1 0.3-5.3-0.8-4.2-2.5-4.7-9.3l-7-66.4 7.5-0.7 2.7 26.3q12.5-10.9 19.4-19.4zm-124.5 30l2 4.8-3.9 1.6-6.2 2.7-15.7 6.6-29.2 12.4-2-4.7 24.6-10.5-1.1-2.5-28.5 12.2-2.3-5.4 28.6-12.1-1.5-3.5 5.9-2.5 1.5 3.5 4-1.7 15.7-6.7 6.2-2.6 2.8-1.2 2.3 5.3-5.1 2.2-6.2 2.6-15.7 6.7-1.7 0.7 1 2.5 0.7-0.3 15.7-6.6 6.2-2.7zm-91.6 117.4q-8.7-20.9-21.2-41.2l6.7-3.3q12.3 21.6 20.3 39.6l17.2-14.4 4.6 5.5-50.8 42.6-7.8 6.5-4.6-5.4 12.4-10.4zm-18.3 8.1l-4.9 5.5q-6.6-5.6-13.6-10.9-8.9-6.6-18.6-12.8l4.5-5.8q7.4 4.7 14.1 9.5 7.2 5.2 13.6 10.4 2.5 2 4.9 4.1zm2.9-70.1l4.6 5.5-12.4 10.4-13.6 11.4-29.6 24.8-4.6-5.5 25.2-21-6.5-7.7 5.7-4.8 6.5 7.7 3.3-2.8 13.6-11.4zm-76.1 175.7q0.6 0.3 1-0.3l29.2-48.5q0.4-0.7-0.3-1l-34.8-21-12.6-7.5-2.8-1.7q-0.6-0.4-1 0.2l-3.9 6.5q2.7 0.6 5.8 1.3l1.9-3.1v-0.1l5.6 3.4-5.6 9.3-2.8 4.6q1.4 0.6 2.8 1.2 6.2 2.7 12.6 4.9 2.3 0.8 4.5 1.5-1.8-2.8-4.5-6-3.1-3.6-7.3-7.7l4.7-4.5q1.4 1.4 2.6 2.7 8.1 8.9 12.5 16.8 0.2 0.4 0.5 0.9 3.7 0.8 7 1.2 3.1 0.3 3.2 0 0.2-0.6-1.1-1.5-2.9-2-7.6-4.3l4.6-4.7q8.5 5.6 11.5 9.2 1 2 0.8 3.1-0.2 1.1-0.9 2.1-1.5 2-5 2.5-3.8 0.2-9.1-0.7 3 7.2 4.7 13.5l-6.4 2.6q-2.3-10.6-5.9-17.7-4.2-1-8.8-2.4-6-1.9-12.6-4.6-3-1.2-6.1-2.6l-3.5 5.9-11.4 18.9-5.5-3.4 14.5-24.1q-2.8-1.1-5.1-2.5l-15.9 26.4q-0.3 0.6 0.3 1l23.1 13.9 9.6 5.7 12.6 7.6zm-26.2-60.6l3.3-5.4q-2.3-0.6-4.2-0.9-0.9-0.2-1.8-0.2l-2.4 4q2 1.1 4.2 2.1 0.4 0.2 0.9 0.4zm2.5-27.6q0.9-1.6 2.4-0.7l3.8 2.3 12.6 7.6 43.2 25.9q1.5 0.9 0.6 2.5l-35.5 59q-0.9 1.5-2.4 0.5l-5.9-3.5-12.6-7.6-9.6-5.7-31.5-19q-1.5-0.9-0.6-2.3l32.1-53.4zm24.4 52.2l6.6 1.9q-2.4 10.6-9.7 26.6l-2.5-0.8-4-1.3q2.2-5 4-9.5 3.9-9.7 5.6-16.9zm-1.6 0.2l-4 6.5-9.1 15.2q-0.5 0.7-1.2 0.3l-2.3-1.4-9.6-5.7v-16.5l6.3-10.4q0.4-0.8 1.1-0.3l2.2 1.3 12.6 7.6 3.6 2.1q0.8 0.6 0.4 1.3zm-15.5 13.7q0.2 0.2 0.4 0l7-11.7q0.1-0.3-0.1-0.4l-8.4-5.1-1-0.6q-0.2-0.1-0.4 0.2l-7 11.6q-0.2 0.3 0.1 0.4l8.3 5zm-17.5-4q-0.4 0.7 0.3 1.2l6.6 3.9v-16.5z"/>
			<path id="&lt;Path&gt;" class="s0" d="m200.1 434.8c10 0 18.1 8 18.1 17.7 0 9.8-8.1 17.7-18.1 17.7-10 0-18-7.9-18-17.7 0-9.7 8-17.7 18-17.7z"/>
			<path id="&lt;Path&gt;" class="s0" d="m989.1 434.8c9.9 0 18 8 18 17.7 0 9.8-8.1 17.7-18 17.7-10 0-18.1-7.9-18.1-17.7 0-9.7 8.1-17.7 18.1-17.7z"/>
			<path id="&lt;Path&gt;" class="s0" d="m607.5 452v117.2l15.6-6.5-0.1-44.5v-41.9c0 0 0.4-17.7-15.5-24.3z"/>
			<path id="&lt;Path&gt;" class="s0" d="m584.8 452l-0.1 117.4-15.5-8 0.1-43.2v-41.9c0 0-0.4-17.7 15.5-24.3z"/>
			<path id="&lt;Compound Path&gt;" class="s1" d="m583.4 664.3v-4.9q1.8 0 3-1.6 1.3-1.7 1.6-7-1.9 2.2-4.6 2.5v-4.3h0.1q1.7 0 2.8-1.3 1.2-1.4 1.2-4 0-2.9-1.3-4.5-1.2-1.4-2.8-1.5v-5q4.7 0 7.7 3.7 3.1 3.6 3.1 12 0 8.4-3.2 12.2-2.9 3.5-7.6 3.7zm32.2-0.5h-6v-22.3q-3.2 3-7.6 4.4v-5.3q2.3-0.8 5-2.9 2.7-2.1 3.7-5h4.9zm11.2-24.9v-5.5h20.3v4.3q-2.5 2.4-5.1 7-2.6 4.7-4 9.9-1.3 5.2-1.3 9.2h-5.7q0.1-6.4 2.6-13 2.5-6.7 6.7-11.9zm-64.1 24.9h-5.9v-22.3q-3.3 3.1-7.7 4.5v-5.4q2.3-0.7 5.1-2.8 2.7-2.2 3.7-5h4.8zm20.7-31v4.9q-0.1 0-0.3 0-1.6 0-2.7 1.3-1.1 1.3-1.1 4.2 0 3 1.2 4.4 1.1 1.4 2.9 1.4v4.3q-0.5 0.1-1 0.1-3.6 0-6.3-2.9-2.6-2.8-2.6-7.3 0-4.7 2.8-7.6 2.8-2.8 7.1-2.8zm0 26.7v4.8q-0.3 0-0.6 0-3.6 0.1-5.9-1.9-2.2-1.9-2.8-5.7l5.7-0.7q0.2 1.8 1.1 2.6 0.9 0.9 2.3 0.9z"/>
		</g>
	</g>
</svg>